M48
;GenerationSoftware,Autodesk,EAGLE,9.6.2*%
;CreationDate,2021-11-17T17:46:46Z*%
FMAT,2
ICI,OFF
METRIC,TZ,000.000
T7C1.000
T6C1.016
T5C1.118
T4C1.200
T3C2.000
T2C3.302
%
G90
M71
T2
X4064Y22860
X4064Y35560
X4064Y8890
T3
X45720Y27940
X45720Y17780
X45720Y50800
X45720Y40640
T4
X48180Y6500
X43180Y6500
X38180Y6500
T5
X19050Y25400
X19050Y38100
X19050Y35560
X19050Y33020
X19050Y22860
X19050Y11430
X16510Y48260
X16510Y58420
X25400Y58420
X25400Y48260
X10160Y58420
X10160Y48260
X5080Y48260
X5080Y58420
X19050Y6350
X19050Y8890
X19050Y20320
T6
X46990Y67310
X44450Y67310
X41910Y67310
T7
X6630Y69850
X11430Y72850
X11430Y66750
M30