G04 EAGLE Gerber RS-274X export*
G75*
%MOMM*%
%FSLAX34Y34*%
%LPD*%
%INTop Copper*%
%IPPOS*%
%AMOC8*
5,1,8,0,0,1.08239X$1,22.5*%
G01*
%ADD10C,1.676400*%
%ADD11C,1.676400*%
%ADD12C,2.000000*%
%ADD13C,4.000000*%
%ADD14C,1.800000*%
%ADD15C,1.524000*%
%ADD16C,0.304800*%
%ADD17C,0.152400*%


D10*
X165100Y482600D03*
X165100Y584200D03*
X254000Y584200D03*
X254000Y482600D03*
X101600Y584200D03*
X101600Y482600D03*
X50800Y482600D03*
X50800Y584200D03*
D11*
X182118Y63500D02*
X198882Y63500D01*
X198882Y88900D02*
X182118Y88900D01*
X182118Y114300D02*
X198882Y114300D01*
X198882Y203200D02*
X182118Y203200D01*
X182118Y228600D02*
X198882Y228600D01*
X198882Y254000D02*
X182118Y254000D01*
X182118Y330200D02*
X198882Y330200D01*
X198882Y355600D02*
X182118Y355600D01*
X182118Y381000D02*
X198882Y381000D01*
D12*
X124300Y667500D02*
X104300Y667500D01*
X104300Y728500D02*
X124300Y728500D01*
X66300Y708500D02*
X66300Y688500D01*
D13*
X457200Y406400D03*
X457200Y508000D03*
X457200Y177800D03*
X457200Y279400D03*
D14*
X381800Y74000D02*
X381800Y56000D01*
X431800Y56000D02*
X431800Y74000D01*
X481800Y74000D02*
X481800Y56000D01*
D15*
X469900Y665480D02*
X469900Y680720D01*
X444500Y680720D02*
X444500Y665480D01*
X419100Y665480D02*
X419100Y680720D01*
D16*
X100584Y583946D02*
X78232Y583946D01*
X53086Y583946D01*
X50800Y584200D01*
X100584Y583946D02*
X101600Y584200D01*
X83820Y698500D02*
X78232Y698500D01*
X66300Y698500D01*
X83820Y698500D02*
X111760Y726440D01*
X114300Y728500D01*
X78232Y698500D02*
X78232Y583946D01*
X167640Y583946D02*
X251460Y583946D01*
X167640Y583946D02*
X165100Y584200D01*
X251460Y583946D02*
X254000Y584200D01*
X114554Y637032D02*
X114554Y664972D01*
X114554Y637032D02*
X164846Y586740D01*
X114554Y664972D02*
X114300Y667500D01*
X164846Y586740D02*
X165100Y584200D01*
X360426Y670560D02*
X419100Y670560D01*
X360426Y670560D02*
X173228Y483362D01*
X167640Y483362D01*
X419100Y670560D02*
X419100Y673100D01*
X167640Y483362D02*
X165100Y482600D01*
X83820Y480568D02*
X53086Y480568D01*
X83820Y480568D02*
X94996Y469392D01*
X153670Y469392D01*
X164846Y480568D01*
X53086Y480568D02*
X50800Y482600D01*
X164846Y480568D02*
X165100Y482600D01*
X189992Y176022D02*
X189992Y114554D01*
X189992Y176022D02*
X167640Y198374D01*
X167640Y231902D01*
X189992Y254254D01*
X189992Y114554D02*
X190500Y114300D01*
X190500Y254000D02*
X189992Y254254D01*
X192786Y382778D02*
X192786Y421894D01*
X251460Y480568D01*
X192786Y382778D02*
X190500Y381000D01*
X251460Y480568D02*
X254000Y482600D01*
X458216Y405130D02*
X458216Y279400D01*
X457200Y279400D01*
X458216Y405130D02*
X457200Y406400D01*
X212344Y83820D02*
X192786Y64262D01*
X212344Y83820D02*
X212344Y181610D01*
X192786Y201168D01*
X192786Y64262D02*
X190500Y63500D01*
X192786Y201168D02*
X190500Y203200D01*
X192786Y279400D02*
X192786Y329692D01*
X192786Y279400D02*
X212344Y259842D01*
X212344Y223520D01*
X192786Y203962D01*
X192786Y329692D02*
X190500Y330200D01*
X192786Y203962D02*
X190500Y203200D01*
X229108Y67056D02*
X379984Y67056D01*
X229108Y67056D02*
X212344Y83820D01*
X379984Y67056D02*
X381800Y65000D01*
X455422Y212344D02*
X455422Y279400D01*
X455422Y212344D02*
X382778Y139700D01*
X382778Y67056D01*
X455422Y279400D02*
X457200Y279400D01*
X382778Y67056D02*
X381800Y65000D01*
X433070Y67056D02*
X433070Y153670D01*
X457200Y177800D01*
X433070Y67056D02*
X431800Y65000D01*
X469392Y519684D02*
X469392Y670560D01*
X469392Y519684D02*
X458216Y508508D01*
X469392Y670560D02*
X469900Y673100D01*
X458216Y508508D02*
X457200Y508000D01*
X307340Y357632D02*
X192786Y357632D01*
X307340Y357632D02*
X455422Y505714D01*
X192786Y357632D02*
X190500Y355600D01*
X455422Y505714D02*
X457200Y508000D01*
D17*
X0Y787007D02*
X0Y787400D01*
X0Y783959D02*
X0Y783565D01*
X0Y780517D02*
X0Y780124D01*
X0Y777076D02*
X0Y776683D01*
X0Y773635D02*
X0Y773241D01*
X0Y770193D02*
X0Y769800D01*
X0Y766752D02*
X0Y766358D01*
X0Y763310D02*
X0Y762917D01*
X0Y759869D02*
X0Y759476D01*
X0Y756428D02*
X0Y756034D01*
X0Y752986D02*
X0Y752593D01*
X0Y749545D02*
X0Y749152D01*
X0Y746104D02*
X0Y745710D01*
X0Y742662D02*
X0Y742269D01*
X0Y739221D02*
X0Y738828D01*
X0Y735780D02*
X0Y735386D01*
X0Y732338D02*
X0Y731945D01*
X0Y728897D02*
X0Y728503D01*
X0Y725455D02*
X0Y725062D01*
X0Y722014D02*
X0Y721621D01*
X0Y718573D02*
X0Y718179D01*
X0Y715131D02*
X0Y714738D01*
X0Y711690D02*
X0Y711297D01*
X0Y708249D02*
X0Y707855D01*
X0Y704807D02*
X0Y704414D01*
X0Y701366D02*
X0Y700973D01*
X0Y697925D02*
X0Y697531D01*
X0Y694483D02*
X0Y694090D01*
X0Y691042D02*
X0Y690648D01*
X0Y687600D02*
X0Y687207D01*
X0Y684159D02*
X0Y683766D01*
X0Y680718D02*
X0Y680324D01*
X0Y677276D02*
X0Y676883D01*
X0Y673835D02*
X0Y673442D01*
X0Y670394D02*
X0Y670000D01*
X0Y666952D02*
X0Y666559D01*
X0Y663511D02*
X0Y663118D01*
X0Y660070D02*
X0Y659676D01*
X0Y656628D02*
X0Y656235D01*
X0Y653187D02*
X0Y652794D01*
X0Y649746D02*
X0Y649352D01*
X0Y646304D02*
X0Y645911D01*
X0Y642863D02*
X0Y642469D01*
X0Y639421D02*
X0Y639028D01*
X0Y635980D02*
X0Y635587D01*
X0Y632539D02*
X0Y632145D01*
X0Y629097D02*
X0Y628704D01*
X0Y625656D02*
X0Y625263D01*
X0Y622215D02*
X0Y621821D01*
X0Y618773D02*
X0Y618380D01*
X0Y615332D02*
X0Y614939D01*
X0Y611891D02*
X0Y611497D01*
X0Y608449D02*
X0Y608056D01*
X0Y605008D02*
X0Y604614D01*
X0Y601566D02*
X0Y601173D01*
X0Y598125D02*
X0Y597732D01*
X0Y594684D02*
X0Y594290D01*
X0Y591242D02*
X0Y590849D01*
X0Y587801D02*
X0Y587408D01*
X0Y584360D02*
X0Y583966D01*
X0Y580918D02*
X0Y580525D01*
X0Y577477D02*
X0Y577084D01*
X0Y574036D02*
X0Y573642D01*
X0Y570594D02*
X0Y570201D01*
X0Y567153D02*
X0Y566759D01*
X0Y563711D02*
X0Y563318D01*
X0Y560270D02*
X0Y559877D01*
X0Y556829D02*
X0Y556435D01*
X0Y553387D02*
X0Y552994D01*
X0Y549946D02*
X0Y549553D01*
X0Y546505D02*
X0Y546111D01*
X0Y543063D02*
X0Y542670D01*
X0Y539622D02*
X0Y539229D01*
X0Y536181D02*
X0Y535787D01*
X0Y532739D02*
X0Y532346D01*
X0Y529298D02*
X0Y528904D01*
X0Y525856D02*
X0Y525463D01*
X0Y522415D02*
X0Y522022D01*
X0Y518974D02*
X0Y518580D01*
X0Y515532D02*
X0Y515139D01*
X0Y512091D02*
X0Y511698D01*
X0Y508650D02*
X0Y508256D01*
X0Y505208D02*
X0Y504815D01*
X0Y501767D02*
X0Y501374D01*
X0Y498326D02*
X0Y497932D01*
X0Y494884D02*
X0Y494491D01*
X0Y491443D02*
X0Y491049D01*
X0Y488001D02*
X0Y487608D01*
X0Y484560D02*
X0Y484167D01*
X0Y481119D02*
X0Y480725D01*
X0Y477677D02*
X0Y477284D01*
X0Y474236D02*
X0Y473843D01*
X0Y470795D02*
X0Y470401D01*
X0Y467353D02*
X0Y466960D01*
X0Y463912D02*
X0Y463519D01*
X0Y460471D02*
X0Y460077D01*
X0Y457029D02*
X0Y456636D01*
X0Y453588D02*
X0Y453194D01*
X0Y450146D02*
X0Y449753D01*
X0Y446705D02*
X0Y446312D01*
X0Y443264D02*
X0Y442870D01*
X0Y439822D02*
X0Y439429D01*
X0Y436381D02*
X0Y435988D01*
X0Y432940D02*
X0Y432546D01*
X0Y429498D02*
X0Y429105D01*
X0Y426057D02*
X0Y425664D01*
X0Y422616D02*
X0Y422222D01*
X0Y419174D02*
X0Y418781D01*
X0Y415733D02*
X0Y415339D01*
X0Y412291D02*
X0Y411898D01*
X0Y408850D02*
X0Y408457D01*
X0Y405409D02*
X0Y405015D01*
X0Y401967D02*
X0Y401574D01*
X0Y398526D02*
X0Y398133D01*
X0Y395085D02*
X0Y394691D01*
X0Y391643D02*
X0Y391250D01*
X0Y388202D02*
X0Y387809D01*
X0Y384761D02*
X0Y384367D01*
X0Y381319D02*
X0Y380926D01*
X0Y377878D02*
X0Y377484D01*
X0Y374436D02*
X0Y374043D01*
X0Y370995D02*
X0Y370602D01*
X0Y367554D02*
X0Y367160D01*
X0Y364112D02*
X0Y363719D01*
X0Y360671D02*
X0Y360278D01*
X0Y357230D02*
X0Y356836D01*
X0Y353788D02*
X0Y353395D01*
X0Y350347D02*
X0Y349954D01*
X0Y346906D02*
X0Y346512D01*
X0Y343464D02*
X0Y343071D01*
X0Y340023D02*
X0Y339629D01*
X0Y336581D02*
X0Y336188D01*
X0Y333140D02*
X0Y332747D01*
X0Y329699D02*
X0Y329305D01*
X0Y326257D02*
X0Y325864D01*
X0Y322816D02*
X0Y322423D01*
X0Y319375D02*
X0Y318981D01*
X0Y315933D02*
X0Y315540D01*
X0Y312492D02*
X0Y312099D01*
X0Y309051D02*
X0Y308657D01*
X0Y305609D02*
X0Y305216D01*
X0Y302168D02*
X0Y301774D01*
X0Y298726D02*
X0Y298333D01*
X0Y295285D02*
X0Y294892D01*
X0Y291844D02*
X0Y291450D01*
X0Y288402D02*
X0Y288009D01*
X0Y284961D02*
X0Y284568D01*
X0Y281520D02*
X0Y281126D01*
X0Y278078D02*
X0Y277685D01*
X0Y274637D02*
X0Y274244D01*
X0Y271196D02*
X0Y270802D01*
X0Y267754D02*
X0Y267361D01*
X0Y264313D02*
X0Y263920D01*
X0Y260872D02*
X0Y260478D01*
X0Y257430D02*
X0Y257037D01*
X0Y253989D02*
X0Y253595D01*
X0Y250547D02*
X0Y250154D01*
X0Y247106D02*
X0Y246713D01*
X0Y243665D02*
X0Y243271D01*
X0Y240223D02*
X0Y239830D01*
X0Y236782D02*
X0Y236389D01*
X0Y233341D02*
X0Y232947D01*
X0Y229899D02*
X0Y229506D01*
X0Y226458D02*
X0Y226065D01*
X0Y223017D02*
X0Y222623D01*
X0Y219575D02*
X0Y219182D01*
X0Y216134D02*
X0Y215740D01*
X0Y212692D02*
X0Y212299D01*
X0Y209251D02*
X0Y208858D01*
X0Y205810D02*
X0Y205416D01*
X0Y202368D02*
X0Y201975D01*
X0Y198927D02*
X0Y198534D01*
X0Y195486D02*
X0Y195092D01*
X0Y192044D02*
X0Y191651D01*
X0Y188603D02*
X0Y188210D01*
X0Y185162D02*
X0Y184768D01*
X0Y181720D02*
X0Y181327D01*
X0Y178279D02*
X0Y177885D01*
X0Y174837D02*
X0Y174444D01*
X0Y171396D02*
X0Y171003D01*
X0Y167955D02*
X0Y167561D01*
X0Y164513D02*
X0Y164120D01*
X0Y161072D02*
X0Y160679D01*
X0Y157631D02*
X0Y157237D01*
X0Y154189D02*
X0Y153796D01*
X0Y150748D02*
X0Y150355D01*
X0Y147307D02*
X0Y146913D01*
X0Y143865D02*
X0Y143472D01*
X0Y140424D02*
X0Y140030D01*
X0Y136982D02*
X0Y136589D01*
X0Y133541D02*
X0Y133148D01*
X0Y130100D02*
X0Y129706D01*
X0Y126658D02*
X0Y126265D01*
X0Y123217D02*
X0Y122824D01*
X0Y119776D02*
X0Y119382D01*
X0Y116334D02*
X0Y115941D01*
X0Y112893D02*
X0Y112500D01*
X0Y109452D02*
X0Y109058D01*
X0Y106010D02*
X0Y105617D01*
X0Y102569D02*
X0Y102175D01*
X0Y99127D02*
X0Y98734D01*
X0Y95686D02*
X0Y95293D01*
X0Y92245D02*
X0Y91851D01*
X0Y88803D02*
X0Y88410D01*
X0Y85362D02*
X0Y84969D01*
X0Y81921D02*
X0Y81527D01*
X0Y78479D02*
X0Y78086D01*
X0Y75038D02*
X0Y74645D01*
X0Y71597D02*
X0Y71203D01*
X0Y68155D02*
X0Y67762D01*
X0Y64714D02*
X0Y64320D01*
X0Y61272D02*
X0Y60879D01*
X0Y57831D02*
X0Y57438D01*
X0Y54390D02*
X0Y53996D01*
X0Y50948D02*
X0Y50555D01*
X0Y47507D02*
X0Y47114D01*
X0Y44066D02*
X0Y43672D01*
X0Y40624D02*
X0Y40231D01*
X0Y37183D02*
X0Y36790D01*
X0Y33742D02*
X0Y33348D01*
X0Y30300D02*
X0Y29907D01*
X0Y26859D02*
X0Y26465D01*
X0Y23417D02*
X0Y23024D01*
X0Y19976D02*
X0Y19583D01*
X0Y16535D02*
X0Y16141D01*
X0Y13093D02*
X0Y12700D01*
X321Y12379D01*
X2476Y10224D02*
X2797Y9904D01*
X4952Y7748D02*
X5272Y7428D01*
X7428Y5272D02*
X7748Y4952D01*
X9904Y2797D02*
X10224Y2476D01*
X12379Y321D02*
X12700Y0D01*
X13092Y0D01*
X16140Y0D02*
X16533Y0D01*
X19581Y0D02*
X19973Y0D01*
X23021Y0D02*
X23414Y0D01*
X26462Y0D02*
X26854Y0D01*
X29902Y0D02*
X30294Y0D01*
X33342Y0D02*
X33735Y0D01*
X36783Y0D02*
X37175Y0D01*
X40223Y0D02*
X40616Y0D01*
X43664Y0D02*
X44056Y0D01*
X47104Y0D02*
X47496Y0D01*
X50544Y0D02*
X50937Y0D01*
X53985Y0D02*
X54377Y0D01*
X57425Y0D02*
X57818Y0D01*
X60866Y0D02*
X61258Y0D01*
X64306Y0D02*
X64699Y0D01*
X67747Y0D02*
X68139Y0D01*
X71187Y0D02*
X71579Y0D01*
X74627Y0D02*
X75020Y0D01*
X78068Y0D02*
X78460Y0D01*
X81508Y0D02*
X81901Y0D01*
X84949Y0D02*
X85341Y0D01*
X88389Y0D02*
X88781Y0D01*
X91829Y0D02*
X92222Y0D01*
X95270Y0D02*
X95662Y0D01*
X98710Y0D02*
X99103Y0D01*
X102151Y0D02*
X102543Y0D01*
X105591Y0D02*
X105983Y0D01*
X109031Y0D02*
X109424Y0D01*
X112472Y0D02*
X112864Y0D01*
X115912Y0D02*
X116305Y0D01*
X119353Y0D02*
X119745Y0D01*
X122793Y0D02*
X123185Y0D01*
X126233Y0D02*
X126626Y0D01*
X129674Y0D02*
X130066Y0D01*
X133114Y0D02*
X133507Y0D01*
X136555Y0D02*
X136947Y0D01*
X139995Y0D02*
X140387Y0D01*
X143435Y0D02*
X143828Y0D01*
X146876Y0D02*
X147268Y0D01*
X150316Y0D02*
X150709Y0D01*
X153757Y0D02*
X154149Y0D01*
X157197Y0D02*
X157590Y0D01*
X160638Y0D02*
X161030Y0D01*
X164078Y0D02*
X164470Y0D01*
X167518Y0D02*
X167911Y0D01*
X170959Y0D02*
X171351Y0D01*
X174399Y0D02*
X174792Y0D01*
X177840Y0D02*
X178232Y0D01*
X181280Y0D02*
X181672Y0D01*
X184720Y0D02*
X185113Y0D01*
X188161Y0D02*
X188553Y0D01*
X191601Y0D02*
X191994Y0D01*
X195042Y0D02*
X195434Y0D01*
X198482Y0D02*
X198874Y0D01*
X201922Y0D02*
X202315Y0D01*
X205363Y0D02*
X205755Y0D01*
X208803Y0D02*
X209196Y0D01*
X212244Y0D02*
X212636Y0D01*
X215684Y0D02*
X216076Y0D01*
X219124Y0D02*
X219517Y0D01*
X222565Y0D02*
X222957Y0D01*
X226005Y0D02*
X226398Y0D01*
X229446Y0D02*
X229838Y0D01*
X232886Y0D02*
X233278Y0D01*
X236326Y0D02*
X236719Y0D01*
X239767Y0D02*
X240159Y0D01*
X243207Y0D02*
X243600Y0D01*
X246648Y0D02*
X247040Y0D01*
X250088Y0D02*
X250481Y0D01*
X253529Y0D02*
X253921Y0D01*
X256969Y0D02*
X257361Y0D01*
X260409Y0D02*
X260802Y0D01*
X263850Y0D02*
X264242Y0D01*
X267290Y0D02*
X267683Y0D01*
X270731Y0D02*
X271123Y0D01*
X274171Y0D02*
X274563Y0D01*
X277611Y0D02*
X278004Y0D01*
X281052Y0D02*
X281444Y0D01*
X284492Y0D02*
X284885Y0D01*
X287933Y0D02*
X288325Y0D01*
X291373Y0D02*
X291765Y0D01*
X294813Y0D02*
X295206Y0D01*
X298254Y0D02*
X298646Y0D01*
X301694Y0D02*
X302087Y0D01*
X305135Y0D02*
X305527Y0D01*
X308575Y0D02*
X308967Y0D01*
X312015Y0D02*
X312408Y0D01*
X315456Y0D02*
X315848Y0D01*
X318896Y0D02*
X319289Y0D01*
X322337Y0D02*
X322729Y0D01*
X325777Y0D02*
X326169Y0D01*
X329217Y0D02*
X329610Y0D01*
X332658Y0D02*
X333050Y0D01*
X336098Y0D02*
X336491Y0D01*
X339539Y0D02*
X339931Y0D01*
X342979Y0D02*
X343372Y0D01*
X346420Y0D02*
X346812Y0D01*
X349860Y0D02*
X350252Y0D01*
X353300Y0D02*
X353693Y0D01*
X356741Y0D02*
X357133Y0D01*
X360181Y0D02*
X360574Y0D01*
X363622Y0D02*
X364014Y0D01*
X367062Y0D02*
X367454Y0D01*
X370502Y0D02*
X370895Y0D01*
X373943Y0D02*
X374335Y0D01*
X377383Y0D02*
X377776Y0D01*
X380824Y0D02*
X381216Y0D01*
X384264Y0D02*
X384656Y0D01*
X387704Y0D02*
X388097Y0D01*
X391145Y0D02*
X391537Y0D01*
X394585Y0D02*
X394978Y0D01*
X398026Y0D02*
X398418Y0D01*
X401466Y0D02*
X401858Y0D01*
X404906Y0D02*
X405299Y0D01*
X408347Y0D02*
X408739Y0D01*
X411787Y0D02*
X412180Y0D01*
X415228Y0D02*
X415620Y0D01*
X418668Y0D02*
X419060Y0D01*
X422108Y0D02*
X422501Y0D01*
X425549Y0D02*
X425941Y0D01*
X428989Y0D02*
X429382Y0D01*
X432430Y0D02*
X432822Y0D01*
X435870Y0D02*
X436263Y0D01*
X439311Y0D02*
X439703Y0D01*
X442751Y0D02*
X443143Y0D01*
X446191Y0D02*
X446584Y0D01*
X449632Y0D02*
X450024Y0D01*
X453072Y0D02*
X453465Y0D01*
X456513Y0D02*
X456905Y0D01*
X459953Y0D02*
X460345Y0D01*
X463393Y0D02*
X463786Y0D01*
X466834Y0D02*
X467226Y0D01*
X470274Y0D02*
X470667Y0D01*
X473715Y0D02*
X474107Y0D01*
X477155Y0D02*
X477547Y0D01*
X480595Y0D02*
X480988Y0D01*
X484036Y0D02*
X484428Y0D01*
X487476Y0D02*
X487869Y0D01*
X490917Y0D02*
X491309Y0D01*
X494357Y0D02*
X494749Y0D01*
X497797Y0D02*
X498190Y0D01*
X501238Y0D02*
X501630Y0D01*
X504678Y0D02*
X505071Y0D01*
X508119Y0D02*
X508511Y0D01*
X511559Y0D02*
X511951Y0D01*
X514999Y0D02*
X515392Y0D01*
X518440Y0D02*
X518832Y0D01*
X521880Y0D02*
X522273Y0D01*
X525321Y0D02*
X525713Y0D01*
X528761Y0D02*
X529154Y0D01*
X532202Y0D02*
X532594Y0D01*
X535642Y0D02*
X536034Y0D01*
X539082Y0D02*
X539475Y0D01*
X542523Y0D02*
X542915Y0D01*
X545963Y0D02*
X546356Y0D01*
X549404Y0D02*
X549796Y0D01*
X552844Y0D02*
X553236Y0D01*
X556284Y0D02*
X556677Y0D01*
X559725Y0D02*
X560117Y0D01*
X563165Y0D02*
X563558Y0D01*
X566606Y0D02*
X566998Y0D01*
X570046Y0D02*
X570438Y0D01*
X573486Y0D02*
X573879Y0D01*
X576927Y0D02*
X577319Y0D01*
X580367Y0D02*
X580760Y0D01*
X583808Y0D02*
X584200Y0D01*
X584521Y321D01*
X586676Y2476D02*
X586997Y2797D01*
X589152Y4952D02*
X589472Y5272D01*
X591628Y7428D02*
X591948Y7748D01*
X594104Y9904D02*
X594424Y10224D01*
X596579Y12379D02*
X596900Y12700D01*
X596900Y13089D01*
X596900Y16137D02*
X596900Y16525D01*
X596900Y19573D02*
X596900Y19962D01*
X596900Y23010D02*
X596900Y23399D01*
X596900Y26447D02*
X596900Y26836D01*
X596900Y29884D02*
X596900Y30272D01*
X596900Y33320D02*
X596900Y33709D01*
X596900Y36757D02*
X596900Y37146D01*
X596900Y40194D02*
X596900Y40583D01*
X596900Y43631D02*
X596900Y44019D01*
X596900Y47067D02*
X596900Y47456D01*
X596900Y50504D02*
X596900Y50893D01*
X596900Y53941D02*
X596900Y54330D01*
X596900Y57378D02*
X596900Y57766D01*
X596900Y60814D02*
X596900Y61203D01*
X596900Y64251D02*
X596900Y64640D01*
X596900Y67688D02*
X596900Y68076D01*
X596900Y71124D02*
X596900Y71513D01*
X596900Y74561D02*
X596900Y74950D01*
X596900Y77998D02*
X596900Y78387D01*
X596900Y81435D02*
X596900Y81823D01*
X596900Y84871D02*
X596900Y85260D01*
X596900Y88308D02*
X596900Y88697D01*
X596900Y91745D02*
X596900Y92134D01*
X596900Y95182D02*
X596900Y95570D01*
X596900Y98618D02*
X596900Y99007D01*
X596900Y102055D02*
X596900Y102444D01*
X596900Y105492D02*
X596900Y105880D01*
X596900Y108928D02*
X596900Y109317D01*
X596900Y112365D02*
X596900Y112754D01*
X596900Y115802D02*
X596900Y116191D01*
X596900Y119239D02*
X596900Y119627D01*
X596900Y122675D02*
X596900Y123064D01*
X596900Y126112D02*
X596900Y126501D01*
X596900Y129549D02*
X596900Y129938D01*
X596900Y132986D02*
X596900Y133374D01*
X596900Y136422D02*
X596900Y136811D01*
X596900Y139859D02*
X596900Y140248D01*
X596900Y143296D02*
X596900Y143685D01*
X596900Y146733D02*
X596900Y147121D01*
X596900Y150169D02*
X596900Y150558D01*
X596900Y153606D02*
X596900Y153995D01*
X596900Y157043D02*
X596900Y157431D01*
X596900Y160479D02*
X596900Y160868D01*
X596900Y163916D02*
X596900Y164305D01*
X596900Y167353D02*
X596900Y167742D01*
X596900Y170790D02*
X596900Y171178D01*
X596900Y174226D02*
X596900Y174615D01*
X596900Y177663D02*
X596900Y178052D01*
X596900Y181100D02*
X596900Y181489D01*
X596900Y184537D02*
X596900Y184925D01*
X596900Y187973D02*
X596900Y188362D01*
X596900Y191410D02*
X596900Y191799D01*
X596900Y194847D02*
X596900Y195235D01*
X596900Y198283D02*
X596900Y198672D01*
X596900Y201720D02*
X596900Y202109D01*
X596900Y205157D02*
X596900Y205546D01*
X596900Y208594D02*
X596900Y208982D01*
X596900Y212030D02*
X596900Y212419D01*
X596900Y215467D02*
X596900Y215856D01*
X596900Y218904D02*
X596900Y219293D01*
X596900Y222341D02*
X596900Y222729D01*
X596900Y225777D02*
X596900Y226166D01*
X596900Y229214D02*
X596900Y229603D01*
X596900Y232651D02*
X596900Y233039D01*
X596900Y236087D02*
X596900Y236476D01*
X596900Y239524D02*
X596900Y239913D01*
X596900Y242961D02*
X596900Y243350D01*
X596900Y246398D02*
X596900Y246786D01*
X596900Y249834D02*
X596900Y250223D01*
X596900Y253271D02*
X596900Y253660D01*
X596900Y256708D02*
X596900Y257097D01*
X596900Y260145D02*
X596900Y260533D01*
X596900Y263581D02*
X596900Y263970D01*
X596900Y267018D02*
X596900Y267407D01*
X596900Y270455D02*
X596900Y270844D01*
X596900Y273892D02*
X596900Y274280D01*
X596900Y277328D02*
X596900Y277717D01*
X596900Y280765D02*
X596900Y281154D01*
X596900Y284202D02*
X596900Y284590D01*
X596900Y287638D02*
X596900Y288027D01*
X596900Y291075D02*
X596900Y291464D01*
X596900Y294512D02*
X596900Y294901D01*
X596900Y297949D02*
X596900Y298337D01*
X596900Y301385D02*
X596900Y301774D01*
X596900Y304822D02*
X596900Y305211D01*
X596900Y308259D02*
X596900Y308648D01*
X596900Y311696D02*
X596900Y312084D01*
X596900Y315132D02*
X596900Y315521D01*
X596900Y318569D02*
X596900Y318958D01*
X596900Y322006D02*
X596900Y322394D01*
X596900Y325442D02*
X596900Y325831D01*
X596900Y328879D02*
X596900Y329268D01*
X596900Y332316D02*
X596900Y332705D01*
X596900Y335753D02*
X596900Y336141D01*
X596900Y339189D02*
X596900Y339578D01*
X596900Y342626D02*
X596900Y343015D01*
X596900Y346063D02*
X596900Y346452D01*
X596900Y349500D02*
X596900Y349888D01*
X596900Y352936D02*
X596900Y353325D01*
X596900Y356373D02*
X596900Y356762D01*
X596900Y359810D02*
X596900Y360199D01*
X596900Y363247D02*
X596900Y363635D01*
X596900Y366683D02*
X596900Y367072D01*
X596900Y370120D02*
X596900Y370509D01*
X596900Y373557D02*
X596900Y373945D01*
X596900Y376993D02*
X596900Y377382D01*
X596900Y380430D02*
X596900Y380819D01*
X596900Y383867D02*
X596900Y384256D01*
X596900Y387304D02*
X596900Y387692D01*
X596900Y390740D02*
X596900Y391129D01*
X596900Y394177D02*
X596900Y394566D01*
X596900Y397614D02*
X596900Y398003D01*
X596900Y401051D02*
X596900Y401439D01*
X596900Y404487D02*
X596900Y404876D01*
X596900Y407924D02*
X596900Y408313D01*
X596900Y411361D02*
X596900Y411749D01*
X596900Y414797D02*
X596900Y415186D01*
X596900Y418234D02*
X596900Y418623D01*
X596900Y421671D02*
X596900Y422060D01*
X596900Y425108D02*
X596900Y425496D01*
X596900Y428544D02*
X596900Y428933D01*
X596900Y431981D02*
X596900Y432370D01*
X596900Y435418D02*
X596900Y435807D01*
X596900Y438855D02*
X596900Y439243D01*
X596900Y442291D02*
X596900Y442680D01*
X596900Y445728D02*
X596900Y446117D01*
X596900Y449165D02*
X596900Y449554D01*
X596900Y452602D02*
X596900Y452990D01*
X596900Y456038D02*
X596900Y456427D01*
X596900Y459475D02*
X596900Y459864D01*
X596900Y462912D02*
X596900Y463300D01*
X596900Y466348D02*
X596900Y466737D01*
X596900Y469785D02*
X596900Y470174D01*
X596900Y473222D02*
X596900Y473611D01*
X596900Y476659D02*
X596900Y477047D01*
X596900Y480095D02*
X596900Y480484D01*
X596900Y483532D02*
X596900Y483921D01*
X596900Y486969D02*
X596900Y487358D01*
X596900Y490406D02*
X596900Y490794D01*
X596900Y493842D02*
X596900Y494231D01*
X596900Y497279D02*
X596900Y497668D01*
X596900Y500716D02*
X596900Y501104D01*
X596900Y504152D02*
X596900Y504541D01*
X596900Y507589D02*
X596900Y507978D01*
X596900Y511026D02*
X596900Y511415D01*
X596900Y514463D02*
X596900Y514851D01*
X596900Y517899D02*
X596900Y518288D01*
X596900Y521336D02*
X596900Y521725D01*
X596900Y524773D02*
X596900Y525162D01*
X596900Y528210D02*
X596900Y528598D01*
X596900Y531646D02*
X596900Y532035D01*
X596900Y535083D02*
X596900Y535472D01*
X596900Y538520D02*
X596900Y538909D01*
X596900Y541957D02*
X596900Y542345D01*
X596900Y545393D02*
X596900Y545782D01*
X596900Y548830D02*
X596900Y549219D01*
X596900Y552267D02*
X596900Y552655D01*
X596900Y555703D02*
X596900Y556092D01*
X596900Y559140D02*
X596900Y559529D01*
X596900Y562577D02*
X596900Y562966D01*
X596900Y566014D02*
X596900Y566402D01*
X596900Y569450D02*
X596900Y569839D01*
X596900Y572887D02*
X596900Y573276D01*
X596900Y576324D02*
X596900Y576713D01*
X596900Y579761D02*
X596900Y580149D01*
X596900Y583197D02*
X596900Y583586D01*
X596900Y586634D02*
X596900Y587023D01*
X596900Y590071D02*
X596900Y590459D01*
X596900Y593507D02*
X596900Y593896D01*
X596900Y596944D02*
X596900Y597333D01*
X596900Y600381D02*
X596900Y600770D01*
X596900Y603818D02*
X596900Y604206D01*
X596900Y607254D02*
X596900Y607643D01*
X596900Y610691D02*
X596900Y611080D01*
X596900Y614128D02*
X596900Y614517D01*
X596900Y617565D02*
X596900Y617953D01*
X596900Y621001D02*
X596900Y621390D01*
X596900Y624438D02*
X596900Y624827D01*
X596900Y627875D02*
X596900Y628263D01*
X596900Y631311D02*
X596900Y631700D01*
X596900Y634748D02*
X596900Y635137D01*
X596900Y638185D02*
X596900Y638574D01*
X596900Y641622D02*
X596900Y642010D01*
X596900Y645058D02*
X596900Y645447D01*
X596900Y648495D02*
X596900Y648884D01*
X596900Y651932D02*
X596900Y652321D01*
X596900Y655369D02*
X596900Y655757D01*
X596900Y658805D02*
X596900Y659194D01*
X596900Y662242D02*
X596900Y662631D01*
X596900Y665679D02*
X596900Y666068D01*
X596900Y669116D02*
X596900Y669504D01*
X596900Y672552D02*
X596900Y672941D01*
X596900Y675989D02*
X596900Y676378D01*
X596900Y679426D02*
X596900Y679814D01*
X596900Y682862D02*
X596900Y683251D01*
X596900Y686299D02*
X596900Y686688D01*
X596900Y689736D02*
X596900Y690125D01*
X596900Y693173D02*
X596900Y693561D01*
X596900Y696609D02*
X596900Y696998D01*
X596900Y700046D02*
X596900Y700435D01*
X596900Y703483D02*
X596900Y703872D01*
X596900Y706920D02*
X596900Y707308D01*
X596900Y710356D02*
X596900Y710745D01*
X596900Y713793D02*
X596900Y714182D01*
X596900Y717230D02*
X596900Y717618D01*
X596900Y720666D02*
X596900Y721055D01*
X596900Y724103D02*
X596900Y724492D01*
X596900Y727540D02*
X596900Y727929D01*
X596900Y730977D02*
X596900Y731365D01*
X596900Y734413D02*
X596900Y734802D01*
X596900Y737850D02*
X596900Y738239D01*
X596900Y741287D02*
X596900Y741676D01*
X596900Y744724D02*
X596900Y745112D01*
X596900Y748160D02*
X596900Y748549D01*
X596900Y751597D02*
X596900Y751986D01*
X596900Y755034D02*
X596900Y755423D01*
X596900Y758471D02*
X596900Y758859D01*
X596900Y761907D02*
X596900Y762296D01*
X596900Y765344D02*
X596900Y765733D01*
X596900Y768781D02*
X596900Y769169D01*
X596900Y772217D02*
X596900Y772606D01*
X596900Y775654D02*
X596900Y776043D01*
X596900Y779091D02*
X596900Y779480D01*
X596900Y782528D02*
X596900Y782916D01*
X596900Y785964D02*
X596900Y786353D01*
X596900Y789401D02*
X596900Y789790D01*
X596900Y792838D02*
X596900Y793227D01*
X596900Y796275D02*
X596900Y796663D01*
X596900Y799711D02*
X596900Y800100D01*
X596506Y800100D01*
X593458Y800100D02*
X593064Y800100D01*
X590016Y800100D02*
X589622Y800100D01*
X586574Y800100D02*
X586181Y800100D01*
X583133Y800100D02*
X582739Y800100D01*
X579691Y800100D02*
X579297Y800100D01*
X576249Y800100D02*
X575855Y800100D01*
X572807Y800100D02*
X572413Y800100D01*
X569365Y800100D02*
X568971Y800100D01*
X565923Y800100D02*
X565530Y800100D01*
X562482Y800100D02*
X562088Y800100D01*
X559040Y800100D02*
X558646Y800100D01*
X555598Y800100D02*
X555204Y800100D01*
X552156Y800100D02*
X551762Y800100D01*
X548714Y800100D02*
X548320Y800100D01*
X545272Y800100D02*
X544879Y800100D01*
X541831Y800100D02*
X541437Y800100D01*
X538389Y800100D02*
X537995Y800100D01*
X534947Y800100D02*
X534553Y800100D01*
X531505Y800100D02*
X531111Y800100D01*
X528063Y800100D02*
X527669Y800100D01*
X524621Y800100D02*
X524227Y800100D01*
X521179Y800100D02*
X520786Y800100D01*
X517738Y800100D02*
X517344Y800100D01*
X514296Y800100D02*
X513902Y800100D01*
X510854Y800100D02*
X510460Y800100D01*
X507412Y800100D02*
X507018Y800100D01*
X503970Y800100D02*
X503576Y800100D01*
X500528Y800100D02*
X500135Y800100D01*
X497087Y800100D02*
X496693Y800100D01*
X493645Y800100D02*
X493251Y800100D01*
X490203Y800100D02*
X489809Y800100D01*
X486761Y800100D02*
X486367Y800100D01*
X483319Y800100D02*
X482925Y800100D01*
X479877Y800100D02*
X479484Y800100D01*
X476436Y800100D02*
X476042Y800100D01*
X472994Y800100D02*
X472600Y800100D01*
X469552Y800100D02*
X469158Y800100D01*
X466110Y800100D02*
X465716Y800100D01*
X462668Y800100D02*
X462274Y800100D01*
X459226Y800100D02*
X458832Y800100D01*
X455784Y800100D02*
X455391Y800100D01*
X452343Y800100D02*
X451949Y800100D01*
X448901Y800100D02*
X448507Y800100D01*
X445459Y800100D02*
X445065Y800100D01*
X442017Y800100D02*
X441623Y800100D01*
X438575Y800100D02*
X438181Y800100D01*
X435133Y800100D02*
X434740Y800100D01*
X431692Y800100D02*
X431298Y800100D01*
X428250Y800100D02*
X427856Y800100D01*
X424808Y800100D02*
X424414Y800100D01*
X421366Y800100D02*
X420972Y800100D01*
X417924Y800100D02*
X417530Y800100D01*
X414482Y800100D02*
X414089Y800100D01*
X411041Y800100D02*
X410647Y800100D01*
X407599Y800100D02*
X407205Y800100D01*
X404157Y800100D02*
X403763Y800100D01*
X400715Y800100D02*
X400321Y800100D01*
X397273Y800100D02*
X396879Y800100D01*
X393831Y800100D02*
X393437Y800100D01*
X390389Y800100D02*
X389996Y800100D01*
X386948Y800100D02*
X386554Y800100D01*
X383506Y800100D02*
X383112Y800100D01*
X380064Y800100D02*
X379670Y800100D01*
X376622Y800100D02*
X376228Y800100D01*
X373180Y800100D02*
X372786Y800100D01*
X369738Y800100D02*
X369345Y800100D01*
X366297Y800100D02*
X365903Y800100D01*
X362855Y800100D02*
X362461Y800100D01*
X359413Y800100D02*
X359019Y800100D01*
X355971Y800100D02*
X355577Y800100D01*
X352529Y800100D02*
X352135Y800100D01*
X349087Y800100D02*
X348693Y800100D01*
X345645Y800100D02*
X345252Y800100D01*
X342204Y800100D02*
X341810Y800100D01*
X338762Y800100D02*
X338368Y800100D01*
X335320Y800100D02*
X334926Y800100D01*
X331878Y800100D02*
X331484Y800100D01*
X328436Y800100D02*
X328042Y800100D01*
X324994Y800100D02*
X324601Y800100D01*
X321553Y800100D02*
X321159Y800100D01*
X318111Y800100D02*
X317717Y800100D01*
X314669Y800100D02*
X314275Y800100D01*
X311227Y800100D02*
X310833Y800100D01*
X307785Y800100D02*
X307391Y800100D01*
X304343Y800100D02*
X303950Y800100D01*
X300902Y800100D02*
X300508Y800100D01*
X297460Y800100D02*
X297066Y800100D01*
X294018Y800100D02*
X293624Y800100D01*
X290576Y800100D02*
X290182Y800100D01*
X287134Y800100D02*
X286740Y800100D01*
X283692Y800100D02*
X283298Y800100D01*
X280250Y800100D02*
X279857Y800100D01*
X276809Y800100D02*
X276415Y800100D01*
X273367Y800100D02*
X272973Y800100D01*
X269925Y800100D02*
X269531Y800100D01*
X266483Y800100D02*
X266089Y800100D01*
X263041Y800100D02*
X262647Y800100D01*
X259599Y800100D02*
X259206Y800100D01*
X256158Y800100D02*
X255764Y800100D01*
X252716Y800100D02*
X252322Y800100D01*
X249274Y800100D02*
X248880Y800100D01*
X245832Y800100D02*
X245438Y800100D01*
X242390Y800100D02*
X241996Y800100D01*
X238948Y800100D02*
X238555Y800100D01*
X235507Y800100D02*
X235113Y800100D01*
X232065Y800100D02*
X231671Y800100D01*
X228623Y800100D02*
X228229Y800100D01*
X225181Y800100D02*
X224787Y800100D01*
X221739Y800100D02*
X221345Y800100D01*
X218297Y800100D02*
X217903Y800100D01*
X214855Y800100D02*
X214462Y800100D01*
X211414Y800100D02*
X211020Y800100D01*
X207972Y800100D02*
X207578Y800100D01*
X204530Y800100D02*
X204136Y800100D01*
X201088Y800100D02*
X200694Y800100D01*
X197646Y800100D02*
X197252Y800100D01*
X194204Y800100D02*
X193811Y800100D01*
X190763Y800100D02*
X190369Y800100D01*
X187321Y800100D02*
X186927Y800100D01*
X183879Y800100D02*
X183485Y800100D01*
X180437Y800100D02*
X180043Y800100D01*
X176995Y800100D02*
X176601Y800100D01*
X173553Y800100D02*
X173160Y800100D01*
X170112Y800100D02*
X169718Y800100D01*
X166670Y800100D02*
X166276Y800100D01*
X163228Y800100D02*
X162834Y800100D01*
X159786Y800100D02*
X159392Y800100D01*
X156344Y800100D02*
X155950Y800100D01*
X152902Y800100D02*
X152508Y800100D01*
X149460Y800100D02*
X149067Y800100D01*
X146019Y800100D02*
X145625Y800100D01*
X142577Y800100D02*
X142183Y800100D01*
X139135Y800100D02*
X138741Y800100D01*
X135693Y800100D02*
X135299Y800100D01*
X132251Y800100D02*
X131857Y800100D01*
X128809Y800100D02*
X128416Y800100D01*
X125368Y800100D02*
X124974Y800100D01*
X121926Y800100D02*
X121532Y800100D01*
X118484Y800100D02*
X118090Y800100D01*
X115042Y800100D02*
X114648Y800100D01*
X111600Y800100D02*
X111206Y800100D01*
X108158Y800100D02*
X107765Y800100D01*
X104717Y800100D02*
X104323Y800100D01*
X101275Y800100D02*
X100881Y800100D01*
X97833Y800100D02*
X97439Y800100D01*
X94391Y800100D02*
X93997Y800100D01*
X90949Y800100D02*
X90555Y800100D01*
X87507Y800100D02*
X87113Y800100D01*
X84065Y800100D02*
X83672Y800100D01*
X80624Y800100D02*
X80230Y800100D01*
X77182Y800100D02*
X76788Y800100D01*
X73740Y800100D02*
X73346Y800100D01*
X70298Y800100D02*
X69904Y800100D01*
X66856Y800100D02*
X66462Y800100D01*
X63414Y800100D02*
X63021Y800100D01*
X59973Y800100D02*
X59579Y800100D01*
X56531Y800100D02*
X56137Y800100D01*
X53089Y800100D02*
X52695Y800100D01*
X49647Y800100D02*
X49253Y800100D01*
X46205Y800100D02*
X45811Y800100D01*
X42763Y800100D02*
X42369Y800100D01*
X39321Y800100D02*
X38928Y800100D01*
X35880Y800100D02*
X35486Y800100D01*
X32438Y800100D02*
X32044Y800100D01*
X28996Y800100D02*
X28602Y800100D01*
X25554Y800100D02*
X25160Y800100D01*
X22112Y800100D02*
X21718Y800100D01*
X18670Y800100D02*
X18277Y800100D01*
X15229Y800100D02*
X14835Y800100D01*
X11787Y800100D02*
X11393Y800100D01*
X8345Y800100D02*
X7951Y800100D01*
X4903Y800100D02*
X4509Y800100D01*
X1461Y800100D02*
X1067Y800100D01*
X-1981Y800100D02*
X-2374Y800100D01*
X-5422Y800100D02*
X-5816Y800100D01*
X-8864Y800100D02*
X-9258Y800100D01*
X-12306Y800100D02*
X-12700Y800100D01*
X-11811Y800100D01*
X-8763Y800100D02*
X-7874Y800100D01*
X-4826Y800100D02*
X-3937Y800100D01*
X-889Y800100D02*
X0Y800100D01*
X0Y799211D01*
X0Y796163D02*
X0Y795274D01*
X0Y792226D02*
X0Y791337D01*
X0Y788289D02*
X0Y787400D01*
M02*
