G04 EAGLE Gerber RS-274X export*
G75*
%MOMM*%
%FSLAX34Y34*%
%LPD*%
%IN*%
%IPPOS*%
%AMOC8*
5,1,8,0,0,1.08239X$1,22.5*%
G01*
%ADD10C,0.254000*%


D10*
X0Y0D02*
X593600Y0D01*
X593600Y800000D01*
X0Y800000D01*
X0Y0D01*
X100300Y723500D02*
X128300Y723500D01*
X128300Y733500D01*
X100300Y733500D01*
X100300Y723500D01*
X97800Y662500D02*
X130800Y662500D01*
X130800Y672500D01*
X97800Y672500D01*
X97800Y662500D01*
X61300Y684500D02*
X71300Y684500D01*
X71300Y712500D01*
X61300Y712500D01*
X61300Y684500D01*
X41180Y105410D02*
X42259Y105339D01*
X43331Y105198D01*
X44391Y104987D01*
X45435Y104708D01*
X46459Y104360D01*
X47457Y103946D01*
X48427Y103468D01*
X49363Y102928D01*
X50262Y102327D01*
X51119Y101669D01*
X51932Y100957D01*
X52697Y100192D01*
X53409Y99379D01*
X54067Y98522D01*
X54668Y97623D01*
X55208Y96687D01*
X55686Y95717D01*
X56100Y94719D01*
X56448Y93695D01*
X56727Y92651D01*
X56938Y91591D01*
X57079Y90519D01*
X57150Y89440D01*
X57150Y88360D01*
X57079Y87281D01*
X56938Y86209D01*
X56727Y85149D01*
X56448Y84105D01*
X56100Y83081D01*
X55686Y82083D01*
X55208Y81113D01*
X54668Y80177D01*
X54067Y79278D01*
X53409Y78421D01*
X52697Y77608D01*
X51932Y76844D01*
X51119Y76131D01*
X50262Y75473D01*
X49363Y74872D01*
X48427Y74332D01*
X47457Y73854D01*
X46459Y73440D01*
X45435Y73092D01*
X44391Y72813D01*
X43331Y72602D01*
X42259Y72461D01*
X41180Y72390D01*
X40100Y72390D01*
X39021Y72461D01*
X37949Y72602D01*
X36889Y72813D01*
X35845Y73092D01*
X34821Y73440D01*
X33823Y73854D01*
X32853Y74332D01*
X31917Y74872D01*
X31018Y75473D01*
X30161Y76131D01*
X29348Y76844D01*
X28584Y77608D01*
X27871Y78421D01*
X27213Y79278D01*
X26612Y80177D01*
X26072Y81113D01*
X25594Y82083D01*
X25180Y83081D01*
X24832Y84105D01*
X24553Y85149D01*
X24342Y86209D01*
X24201Y87281D01*
X24130Y88360D01*
X24130Y89440D01*
X24201Y90519D01*
X24342Y91591D01*
X24553Y92651D01*
X24832Y93695D01*
X25180Y94719D01*
X25594Y95717D01*
X26072Y96687D01*
X26612Y97623D01*
X27213Y98522D01*
X27871Y99379D01*
X28584Y100192D01*
X29348Y100957D01*
X30161Y101669D01*
X31018Y102327D01*
X31917Y102928D01*
X32853Y103468D01*
X33823Y103946D01*
X34821Y104360D01*
X35845Y104708D01*
X36889Y104987D01*
X37949Y105198D01*
X39021Y105339D01*
X40100Y105410D01*
X41180Y105410D01*
X41180Y245110D02*
X42259Y245039D01*
X43331Y244898D01*
X44391Y244687D01*
X45435Y244408D01*
X46459Y244060D01*
X47457Y243646D01*
X48427Y243168D01*
X49363Y242628D01*
X50262Y242027D01*
X51119Y241369D01*
X51932Y240657D01*
X52697Y239892D01*
X53409Y239079D01*
X54067Y238222D01*
X54668Y237323D01*
X55208Y236387D01*
X55686Y235417D01*
X56100Y234419D01*
X56448Y233395D01*
X56727Y232351D01*
X56938Y231291D01*
X57079Y230219D01*
X57150Y229140D01*
X57150Y228060D01*
X57079Y226981D01*
X56938Y225909D01*
X56727Y224849D01*
X56448Y223805D01*
X56100Y222781D01*
X55686Y221783D01*
X55208Y220813D01*
X54668Y219877D01*
X54067Y218978D01*
X53409Y218121D01*
X52697Y217308D01*
X51932Y216544D01*
X51119Y215831D01*
X50262Y215173D01*
X49363Y214572D01*
X48427Y214032D01*
X47457Y213554D01*
X46459Y213140D01*
X45435Y212792D01*
X44391Y212513D01*
X43331Y212302D01*
X42259Y212161D01*
X41180Y212090D01*
X40100Y212090D01*
X39021Y212161D01*
X37949Y212302D01*
X36889Y212513D01*
X35845Y212792D01*
X34821Y213140D01*
X33823Y213554D01*
X32853Y214032D01*
X31917Y214572D01*
X31018Y215173D01*
X30161Y215831D01*
X29348Y216544D01*
X28584Y217308D01*
X27871Y218121D01*
X27213Y218978D01*
X26612Y219877D01*
X26072Y220813D01*
X25594Y221783D01*
X25180Y222781D01*
X24832Y223805D01*
X24553Y224849D01*
X24342Y225909D01*
X24201Y226981D01*
X24130Y228060D01*
X24130Y229140D01*
X24201Y230219D01*
X24342Y231291D01*
X24553Y232351D01*
X24832Y233395D01*
X25180Y234419D01*
X25594Y235417D01*
X26072Y236387D01*
X26612Y237323D01*
X27213Y238222D01*
X27871Y239079D01*
X28584Y239892D01*
X29348Y240657D01*
X30161Y241369D01*
X31018Y242027D01*
X31917Y242628D01*
X32853Y243168D01*
X33823Y243646D01*
X34821Y244060D01*
X35845Y244408D01*
X36889Y244687D01*
X37949Y244898D01*
X39021Y245039D01*
X40100Y245110D01*
X41180Y245110D01*
X41180Y372110D02*
X42259Y372039D01*
X43331Y371898D01*
X44391Y371687D01*
X45435Y371408D01*
X46459Y371060D01*
X47457Y370646D01*
X48427Y370168D01*
X49363Y369628D01*
X50262Y369027D01*
X51119Y368369D01*
X51932Y367657D01*
X52697Y366892D01*
X53409Y366079D01*
X54067Y365222D01*
X54668Y364323D01*
X55208Y363387D01*
X55686Y362417D01*
X56100Y361419D01*
X56448Y360395D01*
X56727Y359351D01*
X56938Y358291D01*
X57079Y357219D01*
X57150Y356140D01*
X57150Y355060D01*
X57079Y353981D01*
X56938Y352909D01*
X56727Y351849D01*
X56448Y350805D01*
X56100Y349781D01*
X55686Y348783D01*
X55208Y347813D01*
X54668Y346877D01*
X54067Y345978D01*
X53409Y345121D01*
X52697Y344308D01*
X51932Y343544D01*
X51119Y342831D01*
X50262Y342173D01*
X49363Y341572D01*
X48427Y341032D01*
X47457Y340554D01*
X46459Y340140D01*
X45435Y339792D01*
X44391Y339513D01*
X43331Y339302D01*
X42259Y339161D01*
X41180Y339090D01*
X40100Y339090D01*
X39021Y339161D01*
X37949Y339302D01*
X36889Y339513D01*
X35845Y339792D01*
X34821Y340140D01*
X33823Y340554D01*
X32853Y341032D01*
X31917Y341572D01*
X31018Y342173D01*
X30161Y342831D01*
X29348Y343544D01*
X28584Y344308D01*
X27871Y345121D01*
X27213Y345978D01*
X26612Y346877D01*
X26072Y347813D01*
X25594Y348783D01*
X25180Y349781D01*
X24832Y350805D01*
X24553Y351849D01*
X24342Y352909D01*
X24201Y353981D01*
X24130Y355060D01*
X24130Y356140D01*
X24201Y357219D01*
X24342Y358291D01*
X24553Y359351D01*
X24832Y360395D01*
X25180Y361419D01*
X25594Y362417D01*
X26072Y363387D01*
X26612Y364323D01*
X27213Y365222D01*
X27871Y366079D01*
X28584Y366892D01*
X29348Y367657D01*
X30161Y368369D01*
X31018Y369027D01*
X31917Y369628D01*
X32853Y370168D01*
X33823Y370646D01*
X34821Y371060D01*
X35845Y371408D01*
X36889Y371687D01*
X37949Y371898D01*
X39021Y372039D01*
X40100Y372110D01*
X41180Y372110D01*
M02*
