G04 EAGLE Gerber RS-274X export*
G75*
%MOMM*%
%FSLAX34Y34*%
%LPD*%
%INTop Copper*%
%IPPOS*%
%AMOC8*
5,1,8,0,0,1.08239X$1,22.5*%
G01*
%ADD10C,1.676400*%
%ADD11C,1.676400*%
%ADD12C,2.000000*%
%ADD13C,4.000000*%
%ADD14C,1.800000*%
%ADD15C,1.524000*%
%ADD16C,0.304800*%


D10*
X165100Y482600D03*
X165100Y584200D03*
X254000Y584200D03*
X254000Y482600D03*
X101600Y584200D03*
X101600Y482600D03*
X50800Y482600D03*
X50800Y584200D03*
D11*
X182118Y63500D02*
X198882Y63500D01*
X198882Y88900D02*
X182118Y88900D01*
X182118Y114300D02*
X198882Y114300D01*
X198882Y203200D02*
X182118Y203200D01*
X182118Y228600D02*
X198882Y228600D01*
X198882Y254000D02*
X182118Y254000D01*
X182118Y330200D02*
X198882Y330200D01*
X198882Y355600D02*
X182118Y355600D01*
X182118Y381000D02*
X198882Y381000D01*
D12*
X124300Y667500D02*
X104300Y667500D01*
X104300Y728500D02*
X124300Y728500D01*
X66300Y708500D02*
X66300Y688500D01*
D13*
X457200Y406400D03*
X457200Y508000D03*
X457200Y177800D03*
X457200Y279400D03*
D14*
X381800Y74000D02*
X381800Y56000D01*
X431800Y56000D02*
X431800Y74000D01*
X481800Y74000D02*
X481800Y56000D01*
D15*
X469900Y665480D02*
X469900Y680720D01*
X444500Y680720D02*
X444500Y665480D01*
X419100Y665480D02*
X419100Y680720D01*
D16*
X100584Y583946D02*
X78232Y583946D01*
X53086Y583946D01*
X50800Y584200D01*
X100584Y583946D02*
X101600Y584200D01*
X83820Y698500D02*
X78232Y698500D01*
X66300Y698500D01*
X83820Y698500D02*
X111760Y726440D01*
X114300Y728500D01*
X78232Y698500D02*
X78232Y583946D01*
X167640Y583946D02*
X251460Y583946D01*
X167640Y583946D02*
X165100Y584200D01*
X251460Y583946D02*
X254000Y584200D01*
X114554Y637032D02*
X114554Y664972D01*
X114554Y637032D02*
X164846Y586740D01*
X114554Y664972D02*
X114300Y667500D01*
X164846Y586740D02*
X165100Y584200D01*
X360426Y670560D02*
X419100Y670560D01*
X360426Y670560D02*
X173228Y483362D01*
X167640Y483362D01*
X419100Y670560D02*
X419100Y673100D01*
X167640Y483362D02*
X165100Y482600D01*
X83820Y480568D02*
X53086Y480568D01*
X83820Y480568D02*
X94996Y469392D01*
X153670Y469392D01*
X164846Y480568D01*
X53086Y480568D02*
X50800Y482600D01*
X164846Y480568D02*
X165100Y482600D01*
X189992Y176022D02*
X189992Y114554D01*
X189992Y176022D02*
X167640Y198374D01*
X167640Y231902D01*
X189992Y254254D01*
X189992Y114554D02*
X190500Y114300D01*
X190500Y254000D02*
X189992Y254254D01*
X192786Y382778D02*
X192786Y421894D01*
X251460Y480568D01*
X192786Y382778D02*
X190500Y381000D01*
X251460Y480568D02*
X254000Y482600D01*
X458216Y405130D02*
X458216Y279400D01*
X457200Y279400D01*
X458216Y405130D02*
X457200Y406400D01*
X212344Y83820D02*
X192786Y64262D01*
X212344Y83820D02*
X212344Y181610D01*
X192786Y201168D01*
X192786Y64262D02*
X190500Y63500D01*
X192786Y201168D02*
X190500Y203200D01*
X192786Y279400D02*
X192786Y329692D01*
X192786Y279400D02*
X212344Y259842D01*
X212344Y223520D01*
X192786Y203962D01*
X192786Y329692D02*
X190500Y330200D01*
X192786Y203962D02*
X190500Y203200D01*
X229108Y67056D02*
X379984Y67056D01*
X229108Y67056D02*
X212344Y83820D01*
X379984Y67056D02*
X381800Y65000D01*
X455422Y212344D02*
X455422Y279400D01*
X455422Y212344D02*
X382778Y139700D01*
X382778Y67056D01*
X455422Y279400D02*
X457200Y279400D01*
X382778Y67056D02*
X381800Y65000D01*
X433070Y67056D02*
X433070Y153670D01*
X457200Y177800D01*
X433070Y67056D02*
X431800Y65000D01*
X469392Y519684D02*
X469392Y670560D01*
X469392Y519684D02*
X458216Y508508D01*
X469392Y670560D02*
X469900Y673100D01*
X458216Y508508D02*
X457200Y508000D01*
X307340Y357632D02*
X192786Y357632D01*
X307340Y357632D02*
X455422Y505714D01*
X192786Y357632D02*
X190500Y355600D01*
X455422Y505714D02*
X457200Y508000D01*
M02*
