G04 EAGLE Gerber RS-274X export*
G75*
%MOMM*%
%FSLAX34Y34*%
%LPD*%
%INBottom Copper*%
%IPPOS*%
%AMOC8*
5,1,8,0,0,1.08239X$1,22.5*%
G01*
%ADD10C,1.676400*%
%ADD11C,1.676400*%
%ADD12C,2.000000*%
%ADD13C,4.000000*%
%ADD14C,1.800000*%
%ADD15C,1.524000*%
%ADD16C,0.304800*%


D10*
X165100Y482600D03*
X165100Y584200D03*
X254000Y584200D03*
X254000Y482600D03*
X101600Y584200D03*
X101600Y482600D03*
X50800Y482600D03*
X50800Y584200D03*
D11*
X182118Y63500D02*
X198882Y63500D01*
X198882Y88900D02*
X182118Y88900D01*
X182118Y114300D02*
X198882Y114300D01*
X198882Y203200D02*
X182118Y203200D01*
X182118Y228600D02*
X198882Y228600D01*
X198882Y254000D02*
X182118Y254000D01*
X182118Y330200D02*
X198882Y330200D01*
X198882Y355600D02*
X182118Y355600D01*
X182118Y381000D02*
X198882Y381000D01*
D12*
X124300Y667500D02*
X104300Y667500D01*
X104300Y728500D02*
X124300Y728500D01*
X66300Y708500D02*
X66300Y688500D01*
D13*
X457200Y406400D03*
X457200Y508000D03*
X457200Y177800D03*
X457200Y279400D03*
D14*
X381800Y74000D02*
X381800Y56000D01*
X431800Y56000D02*
X431800Y74000D01*
X481800Y74000D02*
X481800Y56000D01*
D15*
X469900Y665480D02*
X469900Y680720D01*
X444500Y680720D02*
X444500Y665480D01*
X419100Y665480D02*
X419100Y680720D01*
D16*
X480568Y120142D02*
X480568Y67056D01*
X480568Y120142D02*
X167640Y433070D01*
X167640Y480568D01*
X480568Y67056D02*
X481800Y65000D01*
X167640Y480568D02*
X165100Y482600D01*
X103378Y480568D02*
X103378Y469392D01*
X189992Y382778D01*
X103378Y480568D02*
X101600Y482600D01*
X189992Y304546D02*
X189992Y254254D01*
X189992Y304546D02*
X167640Y326898D01*
X167640Y360426D01*
X189992Y382778D01*
X189992Y254254D02*
X190500Y254000D01*
X190500Y381000D02*
X189992Y382778D01*
X212344Y108966D02*
X192786Y89408D01*
X212344Y108966D02*
X212344Y209550D01*
X192786Y229108D01*
X192786Y89408D02*
X190500Y88900D01*
X212344Y335280D02*
X192786Y354838D01*
X212344Y335280D02*
X212344Y248666D01*
X192786Y229108D01*
X192786Y354838D02*
X190500Y355600D01*
X192786Y229108D02*
X190500Y228600D01*
M02*
